<?xml version="1.0" encoding="utf-8"?>
<!-- Generator: Adobe Illustrator 22.1.0, SVG Export Plug-In . SVG Version: 6.00 Build 0)  -->
<svg version="1.1" id="Layer_1" xmlns="http://www.w3.org/2000/svg" xmlns:xlink="http://www.w3.org/1999/xlink" x="0px" y="0px"
	 viewBox="0 0 865 625" style="enable-background:new 0 0 865 625;" xml:space="preserve">
<style type="text/css">
	.st0{fill:#383838;}
</style>
<g id="XMLID_274_">
	<g id="XMLID_529_">
		<g>
			<path class="st0" d="M800.1,285.1L726.9,201l-70.9,37.5L526.5,103.8l-51.6-72.9l-143.7,164l-49.6-54.7l-67.8,80.4l-39.5-36.9
				L67.5,291.8c0.4,3.2,0.9,6.5,1.4,9.7l104.6-108.2l40.7,31l-13.8,19.4l81.8-96l-11.9,106.9l-6.7-40.3l-63.9,72.8l26.9-14.6
				L199.6,296l-26.9,43.7l35.8-96l-15.7,23.7l4.5-42l-24.6-17.9l-42,45.6l15.1,33.9l-21.3-19.6L82,296.4l-12.4,10.2
				c2.2,14.2,4.8,28.2,7.8,42.2h711.7C793.7,327.8,797.3,306.6,800.1,285.1z M212.5,339.7l262.7-298l-17.4,53.8l17.4,43.7
				l-90.7,63.3l31.4-44.3l-57.1,45.9l38.6,59.4l-64.4-47.1L212.5,339.7z M395.1,290.4l131.1-180.9l-1.1,27.4l44.2,51.4l-59.9-9.9
				l27.4,25.8l-68.3,3.4L395.1,290.4z M726.2,233.5h-28l-6.7,36.2L632,294.9l52.7,17.9l-65-7.8l-87.4,19l193.8-113.1V233.5z"/>
		</g>
	</g>
	<g id="XMLID_275_">
		<g>
			<path class="st0" d="M778.7,362.1c-0.3-2.3,6.1-9.3,10.1-13.5h-5.6c-1.1,0.5-1.8,0.9-1.8,0.9c-0.1-0.2,0-0.5,0.1-0.9H87.4
				c0.7,0.9,1.1,1.5,1.1,1.5c-0.4-0.6-1-1.1-1.8-1.5h-8.4c4.9,3.5,10.1,9.8,10.1,9.8c-4.1-4.4-13.9-2.2-13.9-2.2
				c16.7,8.8,17,13.2,17,13.2c-5.1-3.7-16.8-5.1-16.8-5.1c8.5,2.3,16.9,14.3,16.9,14.3c-2.2-1.7-12.3-6.6-12.3-6.6
				c7.2,3.3,15.4,19.5,15.4,19.5C93.8,390.4,84,388,84,388c3.9,1.1,12.1,11.4,12.1,11.4c-1.4-1.7-10-2.9-10-2.9
				c5.5,2.2,11.7,12,11.7,12c-1.5-1.7-9.1-3-9.1-3c7.6,3.8,10.8,13.1,10.8,13.1c-1.4-1.9-7.1-3.1-7.1-3.1c6.5,4.6,10.8,17,10.1,15.8
				c-0.6-1.1-4.7-3.5-5.6-4c1.6,1.4,7.3,19.1,7.4,19.2c0.1,0.1-2.7-1.2-2.7-1.2c1.2,0.6,2.9,12.2,2.9,12.2
				c-0.7-4.2,6.1-20.9,6.1-20.9l-3.6,3c-0.5-2.3,8.2-8.7,8.2-8.7c-2-0.5-5.8,2.1-5.8,2.1c-0.3-1.4,4-5.9,7.8-9.5
				c7.6,4.8,10.7,14.1,10.7,14.1c-1.6-2.2-8.1-3.6-8.1-3.6c7.5,5.4,12.4,19.6,11.7,18.2c-0.6-1.3-5.4-4-6.4-4.6
				c1.8,1.6,8.4,22,8.6,22.1c0.1,0.1-3.2-1.4-3.2-1.4c1.4,0.7,3.3,14.1,3.3,14.1c-0.9-4.9,7-24.1,7-24.1l-4.2,3.4
				c-0.5-2.7,9.5-10,9.5-10c-2.3-0.6-6.7,2.5-6.7,2.5c-0.6-2.7,14.9-16.4,14.9-16.4c-2.4-1.5-12.1,3.2-12.1,3.2
				c-0.9-2.5,10.5-13.2,14.8-17.2c3.7,4,6.5,8.4,6.5,8.4c-1.8-2-11-3.6-11-3.6c9.2,4.6,13,15.8,13,15.8c-1.7-2.3-8.5-3.8-8.5-3.8
				c7.9,5.6,13,20.5,12.2,19c-0.7-1.3-5.6-4.2-6.7-4.8c1.9,1.7,8.8,23,9,23.2c0.2,0.1-3.3-1.5-3.3-1.5c1.5,0.8,3.5,14.7,3.5,14.7
				c-0.9-5.1,7.4-25.2,7.4-25.2l-4.4,3.6c-0.5-2.8,9.9-10.5,9.9-10.5c-2.4-0.6-7,2.6-7,2.6c-0.6-2.6,12.8-14.8,15.2-16.9
				c7.7,5.8,11,15.3,11,15.3c-1.9-2.5-9.4-4.1-9.4-4.1c8.7,6.2,14.3,22.7,13.5,21c-0.7-1.5-6.2-4.7-7.4-5.3
				c2.1,1.9,9.7,25.4,9.9,25.6c0.2,0.2-3.7-1.6-3.7-1.6c1.7,0.8,3.8,16.3,3.8,16.3c-1-5.6,8.1-27.9,8.1-27.9l-4.8,4
				c-0.6-3.1,11-11.6,11-11.6c-2.7-0.7-7.8,2.9-7.8,2.9c-0.7-3.2,17.2-19,17.2-19c-2.7-1.8-14,3.7-14,3.7c-0.6-1.7,3.6-6.6,8.2-11.4
				c9.7,5.8,13.8,17.7,13.8,17.7c-2-2.7-10-4.4-10-4.4c9.2,6.6,15.2,24.1,14.3,22.3c-0.8-1.6-6.6-5-7.9-5.7c2.2,2,10.3,27,10.5,27.1
				c0.2,0.2-3.9-1.7-3.9-1.7c1.8,0.9,4.1,17.3,4.1,17.3c-1.1-6,8.6-29.6,8.6-29.6l-5.1,4.2c-0.6-3.3,11.6-12.3,11.6-12.3
				c-2.8-0.7-8.3,3-8.3,3c-0.8-3.4,18.2-20.2,18.2-20.2c-2.9-1.9-14.8,3.9-14.8,3.9c-0.8-2.2,6.1-9.5,12-15.3
				c10.1,6,14.3,18.4,14.3,18.4c-2.1-2.8-10.4-4.6-10.4-4.6c9.6,6.8,15.8,25,14.9,23.2c-0.8-1.6-6.9-5.2-8.2-5.9
				c2.3,2.1,10.7,28.1,10.9,28.2c0.2,0.2-4-1.8-4-1.8c1.8,0.9,4.2,18,4.2,18c-1.1-6.2,9-30.8,9-30.8L297,508
				c-0.7-3.4,12.1-12.8,12.1-12.8c-2.9-0.7-8.6,3.2-8.6,3.2c-0.8-3.5,19-21,19-21c-3-1.9-15.4,4.1-15.4,4.1
				c-1-2.9,10.6-14.2,16.9-20.2c7.7,6.4,10.9,16,10.9,16c-2.1-2.8-10.4-4.6-10.4-4.6c9.6,6.8,15.8,25,14.9,23.2
				c-0.8-1.6-6.9-5.2-8.2-5.9c2.3,2.1,10.7,28.1,10.9,28.2c0.2,0.2-4-1.8-4-1.8c1.8,0.9,4.2,18,4.2,18c-1.1-6.2,9-30.8,9-30.8
				L343,508c-0.7-3.4,12.1-12.8,12.1-12.8c-2.9-0.7-8.6,3.2-8.6,3.2c-0.8-3.5,19-21,19-21c-3-1.9-15.4,4.1-15.4,4.1
				c-0.9-2.7,9.3-13,15.8-19.1c4.9,5.3,8.7,11.1,8.7,11.1c-2.3-2.6-14.3-4.7-14.3-4.7c12,6,16.9,20.6,16.9,20.6
				c-2.2-3-11.1-4.9-11.1-4.9c10.2,7.3,16.9,26.7,15.9,24.7c-0.9-1.7-7.3-5.5-8.7-6.3c2.4,2.2,11.5,29.9,11.6,30.1
				c0.2,0.2-4.3-1.9-4.3-1.9c2,1,4.5,19.1,4.5,19.1c-1.2-6.6,9.6-32.8,9.6-32.8l-5.7,4.7c-0.7-3.7,12.9-13.7,12.9-13.7
				c-3.1-0.8-9.2,3.4-9.2,3.4c-0.9-3.7,20.2-22.4,20.2-22.4c-3.2-2.1-16.4,4.3-16.4,4.3c-1-2.9,9.9-13.8,16.8-20.4
				c6.6,6.2,13.4,14.7,13.4,14.7c-2.6-3.1-18.4-5.4-18.4-5.4c10.1,4.1,21.6,22,21.6,22c-2.8-3.1-16.8-5.5-16.8-5.5
				c14.1,7,19.9,24.2,19.9,24.2c-2.6-3.5-13-5.7-13-5.7c12,8.6,19.8,31.3,18.7,29.1c-1-2-8.5-6.4-10.2-7.4
				c2.9,2.8,13.4,35.1,13.6,35.3c0.2,0.2-5-2.3-5-2.3c2.3,1.1,5.3,22.5,5.3,22.5c-1.4-7.8,11.2-38.5,11.2-38.5l-6.7,5.5
				c-0.8-4.3,15.1-16.1,15.1-16.1c-3.7-0.9-10.8,4-10.8,4c-1-4.4,23.7-26.3,23.7-26.3c-3.8-2.4-19.3,5.1-19.3,5.1
				c-1.7-4.9,26.2-29.8,26.2-29.8c-6.9-1.7-22.2,8.2-22.2,8.2c-2.1-3.2,12-14.7,20.9-21.6c4.8,6.1,6.9,12.4,6.9,12.4
				c-2.3-3.1-11.5-5.1-11.5-5.1c10.7,7.6,17.6,27.8,16.6,25.8c-0.9-1.8-7.6-5.7-9.1-6.6c2.6,2.3,11.9,31.2,12.1,31.4
				c0.2,0.2-4.5-2-4.5-2c2,1,4.7,20,4.7,20c-1.2-6.9,10-34.2,10-34.2l-5.9,4.9c-0.7-3.8,13.4-14.3,13.4-14.3
				c-3.3-0.8-9.6,3.5-9.6,3.5c-0.9-3.9,21.1-23.3,21.1-23.3c-3.4-2.2-17.1,4.5-17.1,4.5c-1.5-4.4,23.2-26.5,23.2-26.5
				c-6.1-1.5-19.7,7.3-19.7,7.3c-1.9-3,11.5-13.8,19.4-19.8c9.7,6.4,13.7,18.3,13.7,18.3c-2.1-2.9-10.6-4.7-10.6-4.7
				c9.8,7,16.2,25.6,15.3,23.8c-0.8-1.7-7-5.3-8.4-6c2.3,2.1,11,28.7,11.2,28.9c0.2,0.2-4.1-1.9-4.1-1.9c1.9,0.9,4.3,18.4,4.3,18.4
				c-1.1-6.4,9.2-31.5,9.2-31.5l-5.4,4.5c-0.7-3.5,12.4-13.1,12.4-13.1c-3-0.8-8.8,3.2-8.8,3.2c-0.8-3.6,19.4-21.5,19.4-21.5
				c-3.1-2-15.8,4.2-15.8,4.2c-1.4-4,21.4-24.4,21.4-24.4c-5.6-1.4-18.1,6.7-18.1,6.7c-2.1-3.2,15.4-16.5,21.1-20.7
				c9.7,5.5,13.8,17.4,13.8,17.4c-1.9-2.6-9.7-4.3-9.7-4.3c8.9,6.4,14.7,23.3,13.9,21.6c-0.8-1.5-6.4-4.8-7.6-5.5
				c2.1,1.9,10,26.2,10.2,26.3c0.2,0.2-3.8-1.7-3.8-1.7c1.7,0.9,3.9,16.7,3.9,16.7c-1-5.8,8.4-28.7,8.4-28.7l-5,4.1
				c-0.6-3.2,11.3-12,11.3-12c-2.7-0.7-8,2.9-8,2.9c-0.8-3.3,17.7-19.5,17.7-19.5c-2.8-1.8-14.4,3.8-14.4,3.8
				c-0.9-2.5,8.5-11.9,14.5-17.6c8.4,6,13.8,22,13,20.4c-0.7-1.4-6-4.5-7.2-5.2c2,1.8,9.4,24.7,9.6,24.8c0.2,0.1-3.5-1.6-3.5-1.6
				c1.6,0.8,3.7,15.8,3.7,15.8c-1-5.5,7.9-27,7.9-27l-4.7,3.9c-0.6-3,10.6-11.3,10.6-11.3c-2.6-0.6-7.5,2.8-7.5,2.8
				c-0.7-3.1,16.7-18.4,16.7-18.4c-2.7-1.7-13.5,3.6-13.5,3.6c-1-3,13.4-16.4,17.4-20c3.8,4.7,5.5,9.7,5.5,9.7
				c-1.7-2.4-8.7-3.9-8.7-3.9c8.1,5.8,13.3,21.1,12.5,19.5c-0.7-1.4-5.8-4.3-6.9-5c1.9,1.7,9,23.6,9.2,23.8c0.2,0.1-3.4-1.5-3.4-1.5
				c1.5,0.8,3.5,15.1,3.5,15.1c-0.9-5.2,7.6-25.9,7.6-25.9l-4.5,3.7c-0.6-2.9,10.2-10.8,10.2-10.8c-2.5-0.6-7.2,2.7-7.2,2.7
				c-0.7-3,16-17.7,16-17.7c-2.5-1.6-13,3.4-13,3.4c-0.9-2.6,10.6-13.6,15.5-18.1c5.9,6.2,9.6,16.9,9,15.7c-0.6-1.3-5.3-4-6.3-4.5
				c1.8,1.6,8.3,21.6,8.4,21.7c0.1,0.1-3.1-1.4-3.1-1.4c1.4,0.7,3.2,13.8,3.2,13.8c-0.8-4.8,6.9-23.7,6.9-23.7l-4.1,3.4
				c-0.5-2.6,9.3-9.9,9.3-9.9c-2.3-0.6-6.6,2.4-6.6,2.4c-0.6-2.7,14.6-16.1,14.6-16.1c-2.3-1.5-11.9,3.1-11.9,3.1
				c-0.9-2.4,10.2-13,14.5-16.9c3.7,4.4,5.3,9.1,5.3,9.1c-1.5-2.1-7.7-3.4-7.7-3.4c7.1,5.1,11.8,18.7,11.1,17.3
				c-0.6-1.2-5.1-3.8-6.1-4.4c1.7,1.5,8,20.9,8.1,21c0.1,0.1-3-1.4-3-1.4c1.4,0.7,3.1,13.4,3.1,13.4c-0.8-4.6,6.7-22.9,6.7-22.9
				l-4,3.3c-0.5-2.6,9-9.6,9-9.6c-2.2-0.5-6.4,2.4-6.4,2.4c-0.6-2.6,14.1-15.6,14.1-15.6c-2.3-1.4-11.5,3-11.5,3
				c-1-2.9,15.6-17.8,15.6-17.8c-4.1-1-13.2,4.9-13.2,4.9c-1.8-2.8,16.7-16,16.7-16c-3.5-1.1-8.2,0.1-10.2,0.9
				c-1.4,0.5,13.9-12.3,12.5-12.9c-1.4-0.6-16.4,8.4-15.1,7c1.2-1.4,20.1-19.3,20.1-19.3s0,0-5.1,1.8c-5.1,1.8-12.1,5.8-12.1,5.8
				c-0.5-1.6,17.6-17.9,17.6-17.9c-4.8,0.4-15,2.7-15,2.7c1.2-0.7,17.8-16.4,17.8-16.4C790.2,355.6,778.7,362.1,778.7,362.1z
				 M122.3,405.6c-0.2,0-0.3,0.1-0.5,0.2c-0.9-0.4-2.5-0.9-4.1-1.4c0.8-0.8,1.7-1.5,2.6-2.3C121.2,403.6,121.9,404.9,122.3,405.6z
				 M124.1,415.4c-0.8-0.9-3.6-1.8-6.2-2.4c0.7-0.8,1.5-1.5,2.2-2.3C122.4,413.4,124.1,415.4,124.1,415.4z M118,389.9
				c0.1,0.1,0.2,0.2,0.3,0.4c-0.2,0.1-0.4,0.2-0.5,0.2c-0.1,0-0.1-0.1-0.2-0.1C117.7,390.3,117.9,390.1,118,389.9z M115.7,406.3
				c0.5,0.5,1,1,1.5,1.5c-1.8,1-3.2,1.8-3.2,1.8C113.7,409,114.4,407.8,115.7,406.3z M111.9,421.4c-0.4-1.1,1.8-3.9,4.6-6.8
				c1.4,1.1,2.7,2.5,3.9,3.9C117.2,418.9,111.9,421.4,111.9,421.4z M117.8,422.9c1.4-1.4,2.7-2.6,3.6-3.3c2.8,3.3,4.7,6.3,4.7,6.3
				C124.9,424.6,120.5,423.5,117.8,422.9z M159.1,410c-0.8,0-1.6,0-2.4,0.1c-1-0.3-2-0.6-3.1-1c0.9-0.9,2.1-1.9,3.3-3.1
				C157.9,407.7,158.6,409,159.1,410z M152.6,391.3c0.2,0.3,0.4,0.5,0.6,0.8c-0.9,0.5-1.5,0.9-1.5,0.9
				C151.6,392.7,152,392.1,152.6,391.3z M148.7,405.2c0.4-0.4,2.2-2.3,4.7-4.7c0.4,0.6,0.8,1.2,1.2,1.8
				C151.1,404.2,148.1,405.8,148.7,405.2z M152.2,411.1c-0.3,0.1-0.5,0.2-0.7,0.3c-0.2,0.1-0.1-0.1,0.4-0.6
				C152,410.9,152.1,411,152.2,411.1z M144.7,427.2c-0.9-1.3,2.7-4.9,6.8-8.5c1.4,0.9,2.8,2.1,4.1,3.4
				C151,423.2,144.7,427.2,144.7,427.2z M152.3,418.1c1.3-1.1,2.6-2.1,3.8-3.1c2.9,3.2,5.3,6.1,5.3,6.1
				C160.3,419.8,155.5,418.7,152.3,418.1z M197.5,423.8c-0.5-0.5-2.1-1.1-4.2-1.8c0.8-0.6,1.5-1.2,2.3-1.8
				C196.8,422.4,197.5,423.8,197.5,423.8z M199.1,434.4c-0.8-0.9-3.2-1.7-5.8-2.4c0.8-0.7,1.5-1.4,2.1-2
				C197.6,432.5,199.1,434.4,199.1,434.4z M193,393.9c0.1,0.3,0.1,0.5,0.1,0.5c-0.1-0.1-0.2-0.2-0.4-0.3
				C192.8,394,192.9,394,193,393.9z M192.4,405.3c0.6,0.8,1,1.3,1,1.3c-0.3-0.2-0.8-0.6-1.4-0.9
				C192.1,405.5,192.3,405.4,192.4,405.3z M192.2,414.6c0.3,0.5,0.6,0.9,0.8,1.4c-1.2,0.3-2.2,0.6-2.9,0.9
				C189.7,417,190.7,416.1,192.2,414.6z M187.2,410.3c0.2-0.2,0.6-0.6,1.3-1.3c0.2,0.2,0.3,0.5,0.5,0.7
				C187.6,410.4,186.9,410.7,187.2,410.3z M190.2,424.6c1.3,1.2,2.5,2.5,3.7,3.8c-2,0.5-4.3,1.5-6.2,2.5c-1.1-0.2-1.8-0.3-1.8-0.3
				c0.4,0.2,0.8,0.4,1.2,0.6c-2.3,1.2-4,2.3-4,2.3C182.1,432.1,185.9,428.3,190.2,424.6z M189.3,442.5c0.9,0.4,1.7,1,2.5,1.5
				c-3.6-0.1-11.4,3.6-11.4,3.6c-0.7-1.9,5.6-8.5,10.7-13.5c5.5,4.9,10.3,12.4,10.3,12.4C199.4,444.3,189.3,442.5,189.3,442.5z
				 M233.1,427.3c0.3,0.5,0.6,1.1,0.8,1.5c-1.3,0.3-2.4,0.6-3.1,0.9C230.4,429.9,231.4,428.9,233.1,427.3z M236.6,442.1
				c-0.1,0-0.3,0-0.4,0.1c-1.7-0.9-4.6-1.7-7.2-2.2c1-0.9,2.2-1.9,3.3-2.8C234.2,439.2,235.7,441.1,236.6,442.1z M227.6,422.5
				c0.2-0.2,0.8-0.8,1.7-1.7c0.2,0.3,0.4,0.6,0.6,0.9C228.2,422.6,227.2,423,227.6,422.5z M223,448.1c-0.7-1.1,1.3-3.7,4.4-6.6
				c1,0.8,2,1.7,3,2.7C226.5,445.8,223,448.1,223,448.1z M228.8,451.9c1.6-1.6,3.2-3.2,4.6-4.6c3.7,4.3,6.3,8.4,6.3,8.4
				C238.2,454.1,232,452.6,228.8,451.9z M276.5,432.6c0.9,1.6,1.6,2.9,2.1,3.8c-0.4,0-0.7,0.1-1.1,0.1c-1-0.4-2.3-0.8-3.7-1.3
				C274.5,434.4,275.5,433.5,276.5,432.6z M280.9,449.1c-1.1-1.3-5-2.4-8.5-3.1c1.1-1,2.3-1.9,3.4-2.8
				C278.7,446.4,280.9,449.1,280.9,449.1z M271.6,414.5c0.1,0.2,0.3,0.3,0.4,0.5c-0.5,0.3-0.7,0.4-0.7,0.4
				C271.2,415.2,271.3,414.9,271.6,414.5z M267.5,430.4c0.4-0.5,2.2-2.3,4.8-4.7c0.4,0.6,0.8,1.3,1.2,1.9
				C269.8,429.6,266.9,431.1,267.5,430.4z M262.7,457.5c-1-1.6,3-5.8,7.9-10c1.5,1.2,3,2.6,4.4,4.1
				C269.4,453.1,262.7,457.5,262.7,457.5z M272,458.4c1.8-1.8,3.6-3.4,4.9-4.6c3.8,4.4,6.5,8.7,6.5,8.7
				C281.8,460.6,275.4,459.1,272,458.4z M324.3,435.8c0.5,1,0.8,1.5,0.8,1.5c-0.2-0.2-0.8-0.5-1.5-0.8
				C323.8,436.3,324,436,324.3,435.8z M324.6,446.4c1.4,1.6,2.2,2.7,2.2,2.7c-0.6-0.6-1.8-1.3-3.4-1.8
				C323.9,446.9,324.3,446.6,324.6,446.4z M319,416.2c0.7,0.8,1.1,1.5,1.4,1.8c0,0-0.1,0-0.1,0.1c-0.5-0.3-1.1-0.7-1.9-1.2
				C318.6,416.7,318.8,416.5,319,416.2z M320,428.4c0.6,1,1.2,2,1.7,2.9c-1.9,1-3.8,2-5.4,2.9c-0.6-0.2-1.2-0.3-1.8-0.5
				C315.9,432.3,317.8,430.5,320,428.4z M321.2,442.5c-2.2,0.4-4.1,1-5.3,1.4c-0.6,0.2,1-1.3,3.3-3.5
				C319.9,441.1,320.6,441.8,321.2,442.5z M312.3,435.9c0.2-0.2,0.5-0.5,1-1.1c0.2,0.2,0.4,0.4,0.7,0.5
				C312.7,436.1,312,436.3,312.3,435.9z M322.9,459.5c1.3-1.2,2.1-1.9,2.1-1.9c-1.7-0.4-4,0-6.5,0.9c-1.5-0.3-2.5-0.5-2.5-0.5
				c0.5,0.3,1,0.5,1.5,0.8c-5.1,2-10.3,5.3-10.3,5.3c-1.4-2.1,5.8-8.6,12.4-13.9c5.4,5.3,9.8,12.2,9.8,12.2
				C328.5,461.3,325.7,460.3,322.9,459.5z M366,439.7c0.6,1,1.1,1.9,1.5,2.7c-2.2,0.4-4.2,1-5.5,1.4c-0.1,0-0.1,0-0.2-0.1
				C362.1,443.4,363.8,441.8,366,439.7z M358.3,435.9c0.3-0.4,1.5-1.6,3.2-3.2c0.3,0.5,0.6,0.9,0.9,1.4
				C359.7,435.6,357.8,436.5,358.3,435.9z M353.3,464.1c-0.9-1.3,1.8-4.5,5.5-8c1.3,0.8,2.6,1.9,3.9,3
				C357.9,461.1,353.3,464.1,353.3,464.1z M368.6,457.5c-2.6-0.9-6.2-1.7-8.8-2.2c1.6-1.4,3.3-2.9,5-4.2c2.3,2.5,4.4,4.9,5.7,6.4
				C369.8,457.4,369.2,457.4,368.6,457.5z M370.3,458.2c0.1-0.1,0.3-0.2,0.4-0.3c0.7,0.9,1.1,1.4,1.1,1.4
				C371.5,458.9,371,458.5,370.3,458.2z M418.4,432.5c0,0.1,0,0.2,0,0.2C418.4,432.7,418.4,432.6,418.4,432.5
				C418.4,432.6,418.4,432.5,418.4,432.5z M416.5,446.5c1.4,1.8,2.3,3,2.3,3c-0.7-0.5-1.9-1.2-3.3-2
				C415.8,447.2,416.2,446.8,416.5,446.5z M412.2,424.6c0.6,0.6,1.2,1.1,1.7,1.6c-1.9,1-3.4,1.9-4.1,2.2c-0.1,0-0.2-0.1-0.4-0.1
				C409.7,427.6,410.7,426.3,412.2,424.6z M410.8,439.8c0.6,0.7,1.2,1.3,1.8,2c-1.4,0.7-2.7,1.4-3.8,2c-0.5-0.2-0.9-0.5-1.4-0.7
				C408.4,442.2,409.5,441.1,410.8,439.8z M411.9,452.8c-1.1,0.3-2.1,0.6-2.8,0.9c-0.5,0.2,0.3-0.7,1.9-2.1
				C411.3,452,411.6,452.4,411.9,452.8z M405.3,445.2c0.1-0.1,0.1-0.2,0.3-0.3c0.1,0.1,0.2,0.2,0.3,0.3
				C405.3,445.5,405.1,445.5,405.3,445.2z M399.9,475.3c-0.9-1.4,1.6-4.5,5.3-7.9c1.3,0.5,2.8,1.5,4.4,2.8
				C404.6,472.3,399.9,475.3,399.9,475.3z M416.6,470.3c1.3-1.2,2.2-2,2.2-2c-1.7-0.4-4,0-6.4,0.8c-3-0.8-5.8-1.5-7.1-1.8
				c3.1-2.9,7.1-6.2,10.5-8.9c5.1,7.9,8.7,14.9,8.7,14.9C423.6,472.6,420.3,471.4,416.6,470.3z M475.8,445.5c0.6,1.1,1.2,2.1,1.7,3
				c-1.6,0.8-3,1.6-4.1,2.2c-0.5-0.2-1.1-0.3-1.6-0.5C472.6,449,474,447.4,475.8,445.5z M480.5,464.4c-0.3,0.1-0.5,0.3-0.8,0.4
				c-1.4-0.6-3.3-1.1-5.1-1.6c0.9-0.8,1.8-1.7,2.7-2.6C478.6,462.1,479.7,463.4,480.5,464.4z M466.1,471.6c0.5-0.6,2.8-2.8,6-5.9
				c0.7,0.7,1.5,1.3,2.2,2.1C469.2,470.5,465.2,472.6,466.1,471.6z M470.6,481.5c-0.6,0.2,0.7-1.1,2.9-3.2c0.8,0.5,1.5,1.1,2.2,1.7
				C473.6,480.5,471.8,481.1,470.6,481.5z M481.8,479.3c-2.1-0.8-4.8-1.6-7-2.1c1.3-1.2,2.8-2.6,4.4-4c2,2.4,3.6,4.6,4.6,6.1
				C483.1,479.3,482.4,479.3,481.8,479.3z M532,405.7c0.7,1.1,0.7,1.7,0.7,1.7c-0.5-0.3-1-0.7-1.5-1
				C531.4,406.2,531.7,406,532,405.7z M534.4,434.9c2,3.4,3.1,5.8,3.1,5.8c-0.7-0.7-3.4-1.6-6.5-2.5
				C532.1,437,533.3,436,534.4,434.9z M539.4,452.6c-1-1.1-4.1-2.1-7.2-2.9c0.9-0.9,1.8-1.7,2.6-2.5
				C537.5,450.3,539.4,452.6,539.4,452.6z M528.5,425.6c0.9,1.2,1.7,2.5,2.5,3.7c-5.2,2.5-9.7,5.1-9.7,5.1
				C521,433.5,524.2,429.9,528.5,425.6z M517,451.7c0.7-0.8,5.7-5.6,11.4-11.1c1.2,1.1,2.5,2.4,3.6,3.6
				C525,447.8,515.8,453.1,517,451.7z M531.8,462.5c2.6-2,4.5-3.3,4.5-3.3c-5.2-1.6-12.2,0.2-15.2,1.4c-1.1,0.4,3.9-4,8.9-8.6
				c6.4,5.5,12.1,14.4,12.1,14.4C540.6,464.7,535.4,463.3,531.8,462.5z M594.9,427.6c-0.8-0.8-4.6-2-8.3-3c1.5-1.4,2.9-2.8,4.3-4.1
				C593.4,424.5,594.9,427.6,594.9,427.6z M596.6,438.5c-1.1-1.3-5.4-2.4-8.9-3.1c1.3-1.3,2.4-2.4,3.3-3.4
				C594.2,435.4,596.6,438.5,596.6,438.5z M588.9,408.6c0.2-0.2,0.4-0.4,0.6-0.5c0.8,1.1,1.3,1.7,1.3,1.7
				C590.3,409.5,589.7,409.1,588.9,408.6z M588.5,393.9c1.9,2.2,2,3.3,2,3.3c-1-0.7-2.2-1.4-3.5-2
				C587.5,394.9,588,394.4,588.5,393.9z M585.7,381.7c0.3,0.4,0.5,0.6,0.5,0.6C586.1,382.1,585.9,381.9,585.7,381.7
				C585.7,381.7,585.7,381.7,585.7,381.7z M582.1,399.8c0.5,0.5,1,1,1.5,1.5c-2.6,0.6-4.4,1-4.4,1
				C579.5,402.1,580.6,401.2,582.1,399.8z M585.4,412c1.1,1.5,2.2,3.1,3.2,4.7c-6.3,2.7-13.1,6.6-13.1,6.6
				C575.2,422.2,580,417.2,585.4,412z M571.6,439.2c0.8-0.9,7.1-7,13.5-13.1c1.5,1.3,3,2.8,4.4,4.3
				C583.4,433,570.2,440.8,571.6,439.2z M587.9,447.1c0.9-0.6,1.4-1,1.4-1c-4.8-1.5-11.2,0.2-14,1.2c-1.2,0.4,5.8-5.6,11.2-10.8
				c6.4,4.8,12.5,14.3,12.5,14.3C597.5,449.1,590.9,447.7,587.9,447.1z M634.7,417.7c0.7,1.4,1.2,2.2,1.2,2.2
				c-0.3-0.3-1.2-0.7-2.3-1.1C633.9,418.4,634.3,418.1,634.7,417.7z M637.5,430.2c-0.5-0.6-1.6-1.1-3.1-1.6c0.3-0.3,0.7-0.6,1-0.9
				C636.6,429.2,637.5,430.2,637.5,430.2z M636.2,436.9c2.2,2.8,3.6,5,3.6,5c-0.9-1.1-3.8-2-6.5-2.7
				C634.3,438.4,635.2,437.7,636.2,436.9z M630.3,410.2c0.2,0.3,0.3,0.5,0.5,0.8c-0.8,0.4-1.2,0.7-1.2,0.7
				C629.4,411.5,629.7,410.9,630.3,410.2z M625.9,426.2c0.4-0.4,2-2,4.3-4.2c0.5,0.5,1,1,1.5,1.5C628.1,425.5,625.3,427,625.9,426.2
				z M632.5,432.7c-1.3,0.3-2.4,0.7-3.2,1c-0.5,0.2,0.5-0.7,2-2.2C631.7,431.8,632.1,432.3,632.5,432.7z M621.2,452.5
				c-1.2-1.8,4.7-7.3,10.5-12c2.2,1.8,4.1,3.8,5.5,5.9C631.9,445.6,621.2,452.5,621.2,452.5z M632.8,451c2.2-2.1,4-3.7,4.7-4.3
				c3,4.3,4.4,8.3,4.4,8.3C640.1,452.7,633.5,451.1,632.8,451z M672.9,411c0.7,1.3,1.3,2.4,1.6,3c-0.1,0.1-0.3,0.1-0.4,0.2
				c-0.8-0.4-1.9-0.8-3.3-1.2C671.5,412.4,672.2,411.7,672.9,411z M676.1,424.1c-0.1,0-0.1,0-0.2,0c-1-0.6-2.7-1.2-4.5-1.7
				c0.6-0.5,1.2-1.1,1.8-1.7C674.5,422.2,675.5,423.4,676.1,424.1z M668.8,404.1c0.1,0.2,0.2,0.3,0.3,0.5c-0.4,0.2-0.6,0.3-0.6,0.3
				C668.4,404.8,668.5,404.5,668.8,404.1z M665.1,418.7c0.3-0.3,1.5-1.5,3.2-3.2c0.4,0.4,0.8,0.8,1.2,1.2
				C666.6,418.2,664.5,419.3,665.1,418.7z M669.9,425.1c-0.7,0.2-1.2,0.4-1.7,0.6c-0.3,0.1,0.1-0.4,1-1.2
				C669.5,424.6,669.7,424.9,669.9,425.1z M660.6,443.4c-1-1.6,3.6-6.1,8.6-10.3c2,1.3,3.7,2.8,5.1,4.4
				C669,438,660.6,443.4,660.6,443.4z M669.9,432.6c1.4-1.1,2.7-2.2,4-3.2c2.8,3.4,4.7,6.4,4.7,6.4
				C677.4,434.4,672.8,433.2,669.9,432.6z M713.9,421.8c0.7,1.1,1.2,1.7,1.2,1.7c-0.4-0.4-1.1-0.8-1.9-1.2
				C713.4,422.2,713.7,422,713.9,421.8z M713.1,413.3C713.1,413.3,713.1,413.3,713.1,413.3C713.1,413.3,713.1,413.3,713.1,413.3
				C713.1,413.3,713.1,413.3,713.1,413.3z M707.9,397.6c0.3,0.5,0.5,0.9,0.8,1.3c-1.5,0.8-2.5,1.4-2.5,1.4
				C706.1,400,706.8,399,707.9,397.6z M708.5,408c0.6,0.7,1.2,1.3,1.7,1.9c-0.8,0.4-1.6,0.9-2.4,1.3c-0.7-0.2-1.5-0.3-2.2-0.5
				C706.5,409.9,707.5,409,708.5,408z M711.6,418.8c-2.3,0.3-4.4,0.9-5.7,1.4c-0.6,0.2,1.2-1.4,3.7-3.7
				C710.4,417.3,711,418.1,711.6,418.8z M703,413.5c0.2-0.2,0.8-0.9,1.8-1.8c0.3,0.2,0.6,0.5,0.9,0.7
				C703.7,413.4,702.5,414,703,413.5z M712.7,432.6c0.6-0.5,0.9-0.8,0.9-0.8c-0.9-0.2-2-0.2-3.3,0.1c-0.8-0.2-1.4-0.3-1.4-0.3
				c0.2,0.2,0.4,0.3,0.7,0.5c-4.9,1.3-10.9,5.2-10.9,5.2c-1.2-1.9,5.9-8.1,11.8-12.7c4.5,4.8,6.5,10.5,6.5,10.5
				C716.2,434,714.4,433.2,712.7,432.6z M743.6,397c0.6,1,1,1.8,1.3,2.4c-0.3,0.2-0.6,0.3-0.9,0.5c-0.7-0.3-1.6-0.6-2.6-0.9
				C742.2,398.5,742.9,397.8,743.6,397z M745.8,408c-0.4,0-0.9,0.1-1.3,0.2c-0.8-0.3-1.8-0.5-2.7-0.8c0.6-0.5,1.2-1.1,1.9-1.8
				C744.6,406.6,745.3,407.4,745.8,408z M737.3,403.2c0.2-0.3,1-1,2.1-2.1c0.3,0.3,0.6,0.6,0.9,0.8
				C738.2,403,736.9,403.7,737.3,403.2z M740.4,409.2c-0.1,0-0.2,0.1-0.4,0.1c-0.2,0.1-0.1-0.1,0.1-0.3
				C740.3,409.1,740.4,409.1,740.4,409.2z M733.4,424.9c-0.8-1.3,2.6-4.8,6.6-8.2c1.6,0.9,3,2.1,4.2,3.3
				C739.6,421,733.4,424.9,733.4,424.9z M740.3,416.4c1.3-1.1,2.7-2.2,3.9-3.2c2.7,3.2,4.7,6.2,4.7,6.2
				C747.7,418.1,742.8,416.9,740.3,416.4z"/>
		</g>
	</g>
</g>
</svg>
